# xmcd
#
# Track frame offsets: 
#        150
#        15510
#        31003
#        46747
#        58723
#        74764
#        89928
#        104214
#        120130
#        133054
#        144184
#
# Disc length: 2118 seconds
#
# Revision: 0
# Processed by: cddbd v1.5.2PL0 Copyright (c) Steve Scherf et al.
# Submitted via: ExactAudioCopy v1.3
#
DISCID=9808440b
DTITLE=Gord Bamford - Life Is Good
DYEAR=2005
DGENRE=Country
TTITLE0=Heroes
TTITLE1=My Heart's A Genius
TTITLE2=Politically Incorrect
TTITLE3=Joe's Place
TTITLE4=All About Her
TTITLE5=I Would For You
TTITLE6=Stubborn Blood
TTITLE7=We're All Cowboys
TTITLE8=Life Is Good
TTITLE9=The Watering Hole
TTITLE10=Kendra's Song
EXTD=
EXTT0=
EXTT1=
EXTT2=
EXTT3=
EXTT4=
EXTT5=
EXTT6=
EXTT7=
EXTT8=
EXTT9=
EXTT10=
PLAYORDER=
